PathFileType	4	(X/Y/Z)	E:\3-PhD\Data\MocapData\ElaboratedData\012\pre\dynamicElaborations\Run_baselineB1\Run_baselineB1.trc
DataRate	CameraRate	NumFrames	NumMarkers	Units	OrigDataRate	OrigDataStartFrame	OrigNumFrames
200	200	6	56	mm	200	696	93
Frame#	Time	FHD			LBHD			RBHD			C7			T10			CLAV			LSHO			LUUPA			LMUPA			LDUPA			LLEP			LMEP			LRAD			LUL			LRFIN			RSHO			RUPA1			RMUPA			RDUPA			RLEP			RMEP			RRAD			RUL			RUFIN			LASI			RASI			USACR			LSACR			RSACR			LTHI1			LTHI2			LTHI3			LTHI4			LLFC			LTIB1			LTIB2			LTIB3			LTIB4			LHEE			LMT1			LMT5			LMT2			RTHI			RTHI2			RTHI3			RTHI4			RLFC			RTIB1			RTIB2			RTIB3			RTIB4			RLMAL			RHEE			RMT1			RMT2			RMT5		
		X1	Y1	Z1	X2	Y2	Z2	X3	Y3	Z3	X4	Y4	Z4	X5	Y5	Z5	X6	Y6	Z6	X7	Y7	Z7	X8	Y8	Z8	X9	Y9	Z9	X10	Y10	Z10	X11	Y11	Z11	X12	Y12	Z12	X13	Y13	Z13	X14	Y14	Z14	X15	Y15	Z15	X16	Y16	Z16	X17	Y17	Z17	X18	Y18	Z18	X19	Y19	Z19	X20	Y20	Z20	X21	Y21	Z21	X22	Y22	Z22	X23	Y23	Z23	X24	Y24	Z24	X25	Y25	Z25	X26	Y26	Z26	X27	Y27	Z27	X28	Y28	Z28	X29	Y29	Z29	X30	Y30	Z30	X31	Y31	Z31	X32	Y32	Z32	X33	Y33	Z33	X34	Y34	Z34	X35	Y35	Z35	X36	Y36	Z36	X37	Y37	Z37	X38	Y38	Z38	X39	Y39	Z39	X40	Y40	Z40	X41	Y41	Z41	X42	Y42	Z42	X43	Y43	Z43	X44	Y44	Z44	X45	Y45	Z45	X46	Y46	Z46	X47	Y47	Z47	X48	Y48	Z48	X49	Y49	Z49	X50	Y50	Z50	X51	Y51	Z51	X52	Y52	Z52	X53	Y53	Z53	X54	Y54	Z54	X55	Y55	Z55	X56	Y56	Z56	
696	3.475000	-1381.899322	1779.334085	367.303669	-1534.651762	1742.594907	266.786838	-1519.461382	1737.682917	418.908907	-1563.132738	1584.264485	369.201311	-1725.906921	1279.023648	380.792662	-1447.862710	1473.930654	328.020982	-1486.089634	1585.849398	194.707228	-1624.806210	1459.786978	47.940882	-1606.310020	1415.271334	42.702306	-1665.312844	1406.644717	27.846537	-1703.662150	1332.468504	-4.287824	-1732.147406	1316.678553	76.111406	-1606.069028	1067.043276	-16.400328	-1654.852543	1071.568702	-78.317276	-1574.330006	993.385587	-50.374595	-1428.069018	1515.368345	497.951119	-1517.281737	1308.713439	604.196536	-1482.780161	1278.900809	586.258122	-1522.996788	1239.785778	603.078098	-1526.500335	1165.492001	599.684645	-1580.155790	1158.986186	530.451470	-1331.684934	1068.826953	414.935118	-1329.169839	1006.873737	461.853694	-1257.862671	1033.337011	385.241530	-1645.672379	1044.376726	232.099487	-1643.921019	1010.570612	459.579566	-1789.846027	1148.494754	366.112707	-1811.066303	1122.238391	337.396079	-1804.120777	1119.293538	393.066845	-1636.071442	816.776991	151.826709	-1557.544824	780.176004	159.593561	-1523.891274	808.658985	179.148917	-1547.800667	722.115843	164.798303	-1468.312174	590.720905	182.851696	-1447.768527	405.601151	247.545429	-1469.083679	367.529492	174.531374	-1443.600688	358.285117	212.306240	-1460.901999	280.801598	240.436059	-1574.080913	95.801209	245.595383	-1367.434430	103.638752	279.684409	-1384.661506	84.247274	180.450322	-1351.682666	105.971088	226.298137	-1836.493619	721.556482	500.264542	-1819.038795	656.533104	491.987648	-1789.178317	646.264839	484.533039	-1874.817490	596.000593	475.955943	-1935.980065	504.895926	445.867336	-2042.870117	437.316064	389.950080	-2129.550421	499.600314	414.097069	-2127.081783	457.292349	399.478513	-2168.851123	441.558355	361.038369	-2341.226458	502.081273	336.116365	-2356.423424	554.699462	280.723098	-2386.571252	333.057391	250.923039	-2395.877726	333.019282	293.462594	-2428.465477	375.281313	337.374007	
697	3.480000	-1351.856002	1779.000371	364.576554	-1504.167519	1742.128796	263.430475	-1489.558996	1737.002663	415.548671	-1532.825285	1584.019131	366.022028	-1695.191215	1279.459330	379.324325	-1417.666657	1472.996159	325.220018	-1456.253350	1583.804437	190.804770	-1591.496432	1450.105529	45.624915	-1571.431993	1406.195121	42.025366	-1629.923925	1395.044653	26.907717	-1665.294064	1318.785544	-3.445170	-1694.346214	1304.157761	77.085657	-1556.155822	1057.975577	-4.624002	-1604.275082	1057.749270	-67.071335	-1519.737883	985.794543	-36.241585	-1398.054778	1513.934484	495.494833	-1493.770681	1310.637853	603.191340	-1459.930496	1279.535573	585.880378	-1501.445084	1241.889077	603.061509	-1507.351146	1167.851973	601.418441	-1559.971618	1161.412650	531.611966	-1315.122290	1050.753519	425.817826	-1317.555656	990.793433	475.268956	-1243.092827	1009.397505	399.549608	-1615.733371	1044.611741	230.353483	-1611.032921	1010.879756	458.830521	-1759.363635	1146.536980	367.227881	-1780.821065	1120.268191	339.031676	-1773.190754	1117.261339	394.564252	-1610.786405	813.063405	150.661004	-1533.127307	774.664336	156.875710	-1498.099645	802.508749	174.311043	-1524.684315	716.366795	162.172023	-1447.137476	583.633578	178.868250	-1428.324597	398.487127	244.206999	-1452.354172	360.322447	172.188645	-1425.847281	350.944867	209.077776	-1443.971570	273.974602	238.258962	-1561.018583	91.472646	247.215157	-1353.441162	95.023315	276.507707	-1373.484675	75.561417	177.648244	-1338.961832	96.640486	222.729078	-1796.938324	717.382848	500.116205	-1777.519289	652.751262	492.204627	-1747.281344	643.315002	484.629580	-1831.550748	590.691076	476.180118	-1889.918432	499.819830	445.986639	-1997.803792	436.342261	389.124858	-2082.556287	501.445024	413.599284	-2081.331207	459.545791	398.517676	-2123.355153	445.615005	359.935885	-2293.528036	513.117878	334.658693	-2307.695852	565.766049	278.696009	-2343.142947	344.561433	251.172235	-2352.355477	345.066673	293.816694	-2383.726115	388.513294	337.382601	
698	3.485000	-1321.835673	1778.436747	361.888049	-1473.718206	1741.517831	260.105709	-1459.717132	1736.188422	412.218617	-1502.743181	1583.505718	362.755431	-1664.381909	1279.316111	377.904638	-1387.523961	1471.818583	322.525626	-1426.430852	1581.521459	186.957569	-1557.642905	1440.117926	43.697335	-1535.935245	1396.976048	41.653564	-1593.783069	1383.224168	26.299390	-1625.889801	1304.939269	-2.300644	-1655.692456	1291.383941	78.198757	-1505.277743	1049.911210	7.922908	-1552.325676	1044.798070	-54.981654	-1464.247629	979.477645	-21.125479	-1368.451012	1512.479570	493.166591	-1470.547839	1312.659514	602.152731	-1437.356343	1280.285172	585.613388	-1480.179751	1244.153946	603.018635	-1488.586228	1170.561466	603.174560	-1539.820704	1164.081607	532.505698	-1300.078692	1033.721997	437.794707	-1307.375667	976.200286	489.659971	-1230.259887	986.748462	415.173048	-1585.672054	1044.545683	228.467009	-1578.139909	1010.798537	457.953942	-1728.642111	1144.326300	368.276636	-1750.335598	1118.079711	340.596780	-1742.091348	1114.994292	395.994722	-1585.820972	808.999038	149.512682	-1509.183144	768.637681	154.234545	-1472.833104	795.709967	169.541101	-1502.171016	710.163896	159.641002	-1426.738708	576.058603	175.058663	-1410.338258	390.853604	240.961988	-1437.028240	352.802819	169.828888	-1409.687380	343.153932	205.951275	-1428.943161	266.756453	236.058048	-1550.394372	87.133319	248.456396	-1341.975725	86.463106	273.481091	-1364.602702	67.175973	174.862118	-1328.656726	87.432927	219.367650	-1756.971600	713.065941	499.885611	-1735.490982	648.911740	492.391502	-1704.859928	640.349158	484.715709	-1787.602693	585.282963	476.356572	-1843.030929	494.610803	446.150853	-1951.597594	434.998488	388.494261	-2034.494406	502.593262	413.297255	-2034.420905	461.110456	397.791276	-2076.610485	448.883160	359.209838	-2244.466808	522.752379	333.748355	-2258.042332	575.253377	277.072074	-2298.019362	354.403444	252.404483	-2306.924042	355.492869	295.192216	-2337.036862	400.076147	338.436038	
699	3.490000	-1291.847477	1777.673682	359.234061	-1443.315559	1740.787342	256.818107	-1429.941331	1735.276519	408.925241	-1472.868451	1582.739144	359.400670	-1633.465658	1278.579594	376.542115	-1357.411533	1470.433189	319.950706	-1396.610651	1579.052865	183.182544	-1523.202500	1429.970737	42.188719	-1499.788563	1387.747815	41.615584	-1556.844771	1371.337313	26.032460	-1585.435491	1291.112939	-0.834593	-1616.155469	1278.485586	79.475298	-1453.564710	1043.083889	21.222483	-1499.095484	1033.001151	-42.051253	-1408.012515	974.667805	-5.041931	-1339.245306	1511.028356	491.010161	-1447.630586	1314.820712	601.126380	-1415.070512	1281.190035	585.523949	-1459.215094	1246.623673	603.004413	-1470.223975	1173.667787	604.973356	-1519.735738	1167.020892	533.216716	-1286.496910	1018.045729	450.760690	-1298.478902	963.381654	504.908705	-1219.273172	965.783904	431.927286	-1555.520639	1044.144893	226.442401	-1545.238270	1010.316774	456.907520	-1697.676132	1141.920375	369.217555	-1719.603772	1115.722156	342.038144	-1710.810218	1112.546876	397.316278	-1561.207111	804.586759	148.346237	-1485.742680	762.103480	151.638511	-1448.146154	788.246726	164.914443	-1480.293072	703.521472	157.176694	-1407.175627	567.953084	171.421388	-1393.859107	382.735512	237.886236	-1423.059282	344.981568	167.507305	-1395.114459	334.944879	203.032343	-1415.813267	259.204833	233.931646	-1542.035552	82.738923	249.348124	-1332.865486	78.369278	270.748063	-1357.755267	59.445331	172.215338	-1320.568361	78.768620	216.364053	-1716.588087	708.668962	499.616760	-1692.962166	645.091473	492.570303	-1661.931179	637.442532	484.815302	-1742.978773	579.860049	476.511828	-1795.312620	489.325987	446.374123	-1904.283974	433.308524	388.068238	-1985.417101	503.075840	413.218280	-1986.404847	462.001720	397.339558	-2028.715114	451.372545	358.874987	-2194.223947	530.917512	333.427791	-2207.645721	583.183783	275.977705	-2251.340219	362.593466	254.443134	-2259.726407	364.245341	297.404975	-2288.567177	409.852001	340.397772	
700	3.495000	-1261.904007	1776.742113	356.615106	-1412.972691	1739.960241	253.575847	-1400.239606	1734.295591	405.676946	-1443.179335	1581.726016	355.978431	-1602.434610	1277.258959	375.237015	-1327.302808	1468.874273	317.506935	-1366.780531	1576.456718	179.504459	-1488.142101	1419.829606	41.115981	-1462.973090	1378.655918	41.931539	-1519.080738	1359.553911	26.110427	-1543.938711	1277.506720	0.969095	-1575.723088	1265.613513	80.944489	-1401.168548	1037.723782	35.244723	-1444.706710	1022.645252	-28.292097	-1351.206432	971.599025	11.980459	-1310.417319	1509.601568	489.066099	-1425.043235	1317.178394	600.161722	-1393.101583	1282.305867	585.671816	-1438.575350	1249.358278	603.077025	-1452.284873	1177.226099	606.829362	-1499.766662	1170.271908	533.850491	-1274.278816	1004.019655	464.589228	-1290.685096	952.584627	520.867874	-1209.976801	946.875822	449.609860	-1525.318261	1043.381177	224.286816	-1512.326260	1009.433792	455.644799	-1666.473564	1139.382577	370.015021	-1688.635518	1113.255176	343.311235	-1679.345164	1109.977963	398.488935	-1536.949838	799.877355	147.144760	-1462.802143	755.139973	149.075431	-1424.041693	780.188513	160.498166	-1459.037959	696.518033	154.770423	-1388.488353	559.332293	167.961565	-1378.926618	374.217114	235.065229	-1410.429441	336.910841	165.303891	-1382.129020	326.395081	200.429467	-1404.588439	251.431111	232.002965	-1535.789497	78.297852	249.969506	-1325.947975	71.142880	268.427485	-1352.724562	52.709025	169.824634	-1314.522317	71.055306	213.840233	-1675.774907	704.262250	499.344326	-1649.933784	641.373446	492.753732	-1618.508269	634.676332	484.936090	-1697.682027	574.515674	476.663831	-1746.754801	484.040875	446.658649	-1855.896564	431.312433	387.846357	-1935.379679	502.936852	413.389007	-1937.338706	462.257147	397.196758	-1979.765251	453.105820	358.932123	-2142.987678	537.557713	333.715214	-2156.679645	589.583632	275.519256	-2203.227546	369.144466	257.111844	-2210.903378	371.285922	300.267578	-2238.493307	417.743014	343.118384	
701	3.500000	-1232.020120	1775.671181	354.039277	-1382.702205	1739.054638	250.389352	-1370.621763	1733.263739	402.485348	-1413.651329	1580.466713	352.521697	-1571.287150	1275.383733	373.983043	-1297.169414	1467.173078	315.206104	-1336.926089	1573.794910	175.956782	-1452.443719	1409.866984	40.478999	-1425.487944	1369.850566	42.608774	-1480.488275	1348.052820	26.526725	-1501.431483	1264.326418	3.122599	-1534.409311	1252.939912	82.635797	-1348.265268	1034.047863	49.944339	-1389.318722	1014.007238	-13.728195	-1294.027729	970.496972	29.894362	-1281.942232	1508.219283	487.370174	-1402.814434	1319.802439	599.303227	-1371.492452	1283.703656	586.102941	-1418.292976	1252.432610	603.287906	-1434.786611	1181.298180	608.748024	-1479.971305	1173.890291	534.520443	-1263.284139	991.904456	479.137520	-1283.796595	944.002751	537.363429	-1202.153336	930.351881	468.012001	-1495.113997	1042.234604	222.013147	-1479.405398	1008.160030	454.116301	-1635.053141	1136.783020	370.640714	-1657.454316	1110.750327	344.381066	-1647.702512	1107.354536	399.472912	-1513.027146	794.973324	145.905155	-1440.323435	747.895122	146.550731	-1400.480792	771.689698	156.350231	-1438.348864	689.294185	152.427515	-1370.691156	550.274365	164.690472	-1365.549972	365.434142	232.582108	-1399.133039	328.691098	163.316652	-1370.718351	317.630644	198.240410	-1395.253393	243.597166	230.408249	-1531.488980	73.875282	250.438876	-1321.051960	65.096662	266.602437	-1349.316392	47.218319	167.796712	-1310.347781	64.610955	211.878320	-1634.512472	699.921669	499.090993	-1606.398975	637.845988	492.944774	-1574.600203	632.137115	485.067956	-1651.712020	569.350113	476.820090	-1697.346757	478.851459	446.989040	-1806.468871	429.068307	387.817929	-1884.442625	502.232704	413.827512	-1887.279394	461.926945	397.375587	-1929.851204	454.114019	359.366792	-2090.944968	542.634503	334.605870	-2105.307434	594.480414	275.774495	-2153.786427	374.069793	260.246007	-2160.588083	376.589342	303.605744	-2186.991159	423.674172	346.447911	
